<svg xmlns="http://www.w3.org/2000/svg" xmlns:xlink="http://www.w3.org/1999/xlink" viewBox="0 0 630.16 526.38"><defs><style>.cls-1{isolation:isolate;}.cls-2{fill:url(#linear-gradient);}.cls-13,.cls-3{fill:#fff;}.cls-3{opacity:0.25;mix-blend-mode:soft-light;}.cls-4{fill:url(#linear-gradient-2);}.cls-5{fill:url(#linear-gradient-3);}.cls-6{fill:url(#linear-gradient-4);}.cls-7{fill:url(#linear-gradient-5);}.cls-8{fill:url(#linear-gradient-6);}.cls-9{fill:url(#linear-gradient-7);}.cls-10{fill:url(#linear-gradient-8);}.cls-11{fill:url(#linear-gradient-9);}.cls-12{fill:none;stroke:#fff;stroke-linecap:round;stroke-linejoin:round;stroke-width:6.37px;}.cls-14{fill:url(#linear-gradient-10);}</style><linearGradient id="linear-gradient" x1="454.64" y1="-153.13" x2="180.05" y2="665.99" gradientUnits="userSpaceOnUse"><stop offset="0" stop-color="#2ed8ff"/><stop offset="1" stop-color="#2e90ff"/></linearGradient><linearGradient id="linear-gradient-2" x1="281.24" y1="334.09" x2="284.64" y2="652.96" gradientUnits="userSpaceOnUse"><stop offset="0" stop-color="#fff"/><stop offset="1" stop-color="#2e90ff"/></linearGradient><linearGradient id="linear-gradient-3" x1="244.01" y1="130.7" x2="428.67" y2="965.7" xlink:href="#linear-gradient-2"/><linearGradient id="linear-gradient-4" x1="300.62" y1="284.61" x2="535.46" y2="533.9" xlink:href="#linear-gradient-2"/><linearGradient id="linear-gradient-5" x1="251.3" y1="350.46" x2="222.66" y2="212.39" xlink:href="#linear-gradient-2"/><linearGradient id="linear-gradient-6" x1="279.39" y1="413.99" x2="493.07" y2="114.63" xlink:href="#linear-gradient-2"/><linearGradient id="linear-gradient-7" x1="419.49" y1="132.03" x2="422.01" y2="368.68" gradientTransform="matrix(0.87, 0.49, -0.49, 0.87, 108.04, -98.3)" xlink:href="#linear-gradient-2"/><linearGradient id="linear-gradient-8" x1="391.87" y1="-18.91" x2="528.9" y2="600.77" gradientTransform="matrix(0.87, 0.49, -0.49, 0.87, 108.04, -98.3)" xlink:href="#linear-gradient-2"/><linearGradient id="linear-gradient-9" x1="288.96" y1="65.14" x2="168.11" y2="360.27" gradientTransform="translate(-74.93 47.6) rotate(-22.08)" gradientUnits="userSpaceOnUse"><stop offset="0" stop-color="#ffe089"/><stop offset="1" stop-color="#ff7a13"/></linearGradient><linearGradient id="linear-gradient-10" x1="404.9" y1="304.84" x2="481.29" y2="467.94" gradientUnits="userSpaceOnUse"><stop offset="0" stop-color="#e59cff"/><stop offset="1" stop-color="#6d07ff"/></linearGradient></defs><g class="cls-1"><g id="Layer_2" data-name="Layer 2"><g id="Layer_1-2" data-name="Layer 1"><rect class="cls-2" width="630.16" height="526.38"/><path class="cls-3" d="M53,306.58a181.15,181.15,0,0,0-53,7.88v80.16A107.19,107.19,0,0,1,153,526.38H230A181.32,181.32,0,0,0,53,306.58Z"/><path class="cls-3" d="M611.58,70A70,70,0,0,1,541.63,0H493.3A118.29,118.29,0,0,0,611.58,118.29a118.54,118.54,0,0,0,18.58-1.46V67.45A69.79,69.79,0,0,1,611.58,70Z"/><path class="cls-3" d="M130.53,72.48a70,70,0,1,0,69.95,70A70,70,0,0,0,130.53,72.48Zm0,111.32a41.37,41.37,0,1,1,41.37-41.37A41.38,41.38,0,0,1,130.53,183.8Z"/><path class="cls-4" d="M397.12,405.83l-26.77,2.61L181,426.94a9.87,9.87,0,0,1-10.78-8.86L157,282.74h0l-.42-4.35a9.81,9.81,0,0,1,2.8-7.89,10.69,10.69,0,0,1,1.36-1.16,9.87,9.87,0,0,1,4.7-1.73l160-15.63,12.47-1.22,43.62-4.26a9.83,9.83,0,0,1,8.58,3.55,10.74,10.74,0,0,1,.83,1.17,10.57,10.57,0,0,1,.66,1.3,9.64,9.64,0,0,1,.72,2.84l5.71,58.52L400.7,341l.95,9.68L406,395.05A9.87,9.87,0,0,1,397.12,405.83Z"/><path class="cls-5" d="M391.62,252.52l-24.09,29.31L291.78,374a15.15,15.15,0,0,1-21.3,2.08L157,282.74h0l-.42-4.35a9.81,9.81,0,0,1,2.8-7.89,8.87,8.87,0,0,1,1.36-1.16,9.78,9.78,0,0,1,4.7-1.74l9.6-.94,115.47-11.27,35-3.41,12.47-1.22,43.62-4.26a9.83,9.83,0,0,1,8.58,3.55,10.74,10.74,0,0,1,.83,1.17A10.57,10.57,0,0,1,391.62,252.52Z"/><path class="cls-6" d="M397.12,405.83l-26.77,2.61c-.42-1.27-.8-2.58-1.13-3.9A54.67,54.67,0,0,1,400.7,341l.95,9.68L406,395.05A9.87,9.87,0,0,1,397.12,405.83Z"/><path class="cls-7" d="M290.48,255.39A77.51,77.51,0,0,1,175,266.66Z"/><path class="cls-8" d="M398.82,320.34l-30.52-32-29.6-31.07L382.32,253a9.83,9.83,0,0,1,8.58,3.55,10.74,10.74,0,0,1,.83,1.17,10.57,10.57,0,0,1,.66,1.3,9.64,9.64,0,0,1,.72,2.84Z"/><path class="cls-9" d="M458.57,310.33,311,245.62a7.32,7.32,0,0,1-3.77-9.64L349,140.58a7.33,7.33,0,0,1,9.65-3.77L468,184.72l38.32,16.8a7.32,7.32,0,0,1,4.33,7.54,7.42,7.42,0,0,1-.56,2.1l-28.55,65.12-13.27,30.28A7.33,7.33,0,0,1,458.57,310.33Z"/><path class="cls-10" d="M510.6,209.06,401.91,251.5a11.24,11.24,0,0,1-14.55-6.37L347.7,143.55l1.3-3a7.32,7.32,0,0,1,9.65-3.77l147.62,64.7A7.34,7.34,0,0,1,510.6,209.06Z"/><circle class="cls-11" cx="216.66" cy="204.45" r="77.48"/><path class="cls-12" d="M237.29,178.69l21,8.87-9.75,23.07a38.48,38.48,0,0,1-34,23.47"/><path class="cls-12" d="M194.79,229.68,175,221.33l9.75-23.06a38.49,38.49,0,0,1,34.62-23.5"/><circle class="cls-13" cx="216.66" cy="204.45" r="15.16"/><line class="cls-12" x1="236.76" y1="156.91" x2="196.56" y2="251.98"/><circle class="cls-14" cx="439.88" cy="379.52" r="54.68"/><path class="cls-13" d="M466.81,411.24v3.37a44.35,44.35,0,0,1-53.86,0v-3.37a26.93,26.93,0,0,1,53.86,0Z"/><circle class="cls-13" cx="439.88" cy="364.85" r="11.63"/></g></g></g></svg>