<?xml version="1.0" encoding="utf-8"?>
<!-- Generator: Adobe Illustrator 25.0.0, SVG Export Plug-In . SVG Version: 6.00 Build 0)  -->
<svg version="1.1" id="Layer_1" xmlns="http://www.w3.org/2000/svg" xmlns:xlink="http://www.w3.org/1999/xlink" x="0px" y="0px"
	 viewBox="0 0 1920 1080" style="enable-background:new 0 0 1920 1080;" xml:space="preserve">
<style type="text/css">
	.st0{fill:#EAF0F9;}
	.st1{opacity:0.25;fill:#BDCDE5;}
	.st2{opacity:0.67;}
	.st3{fill:#FFFFFF;}
	.st4{fill:url(#SVGID_1_);}
	.st5{opacity:0.25;fill:#FFFFFF;}
	.st6{opacity:0.48;}
	.st7{fill:url(#SVGID_2_);}
	.st8{fill:none;stroke:#BDCDE5;stroke-width:2;stroke-miterlimit:10;}
	.st9{fill:url(#SVGID_3_);}
	.st10{fill:url(#SVGID_4_);}
	.st11{fill:url(#SVGID_5_);}
	.st12{fill:url(#SVGID_6_);}
	.st13{fill:url(#SVGID_7_);}
	.st14{fill:url(#SVGID_8_);}
	.st15{fill:url(#SVGID_9_);}
	.st16{fill:url(#SVGID_10_);}
	.st17{fill:none;stroke:#FFFFFF;stroke-width:6.3713;stroke-linecap:round;stroke-linejoin:round;stroke-miterlimit:10;}
	.st18{fill:url(#SVGID_11_);}
</style>
<rect class="st0" width="1920" height="1080"/>
<g>
	<path class="st1" d="M358.52,661.36c-67.12,0-121.54,54.41-121.54,121.54s54.42,121.55,121.54,121.55
		c67.13,0,121.55-54.42,121.55-121.55S425.65,661.36,358.52,661.36z M358.52,854.78c-39.7,0-71.88-32.18-71.88-71.88
		c0-39.7,32.18-71.88,71.88-71.88s71.88,32.18,71.88,71.88C430.4,822.6,398.22,854.78,358.52,854.78z"/>
	<path class="st1" d="M1838.28,848.46c-108.81,0-197.02,88.22-197.02,197.03c0,11.77,1.03,23.3,3.02,34.51h82.68
		c-3.38-10.9-5.2-22.49-5.2-34.51c0-64.35,52.17-116.51,116.52-116.51c31.84,0,60.69,12.76,81.72,33.46v-96.28
		C1895.11,854.79,1867.43,848.46,1838.28,848.46z"/>
	<path class="st1" d="M260.76,0H154.93c9.8,19.41,15.32,41.36,15.32,64.59c0,79.31-64.28,143.59-143.58,143.59
		c-9.11,0-18.03-0.85-26.67-2.47v100.23c8.76,0.96,17.66,1.45,26.67,1.45c134.08,0,242.78-108.7,242.78-242.8
		C269.45,42.22,266.43,20.56,260.76,0z"/>
	<path class="st1" d="M980.44,81.59c-99.42,0-180.03,80.61-180.03,180.04c0,99.44,80.61,180.04,180.03,180.04
		c99.43,0,180.04-80.6,180.04-180.04C1160.48,162.2,1079.87,81.59,980.44,81.59z M980.44,368.1c-58.8,0-106.47-47.66-106.47-106.47
		s47.67-106.47,106.47-106.47c58.81,0,106.48,47.66,106.48,106.47S1039.25,368.1,980.44,368.1z"/>
</g>
</svg>
